<svg width="11" height="11" viewBox="0 0 11 11" fill="none" xmlns="http://www.w3.org/2000/svg">
  <path d="M5.50036 9.29303C6.31038 9.29303 6.96702 8.61374 6.96702 7.77579C6.96702 6.93784 6.31038 6.25854 5.50036 6.25854C4.69034 6.25854 4.03369 6.93784 4.03369 7.77579C4.03369 8.61374 4.69034 9.29303 5.50036 9.29303Z" stroke="white" stroke-miterlimit="10" stroke-linecap="square"/>
  <path d="M3.11696 4.93115L0.550293 8.34495V9.86219C0.550293 10.3932 0.953626 10.8105 1.46696 10.8105H9.53363C10.047 10.8105 10.4503 10.3932 10.4503 9.86219V8.34495L7.88363 4.93115H3.11696Z" stroke="white" stroke-miterlimit="10" stroke-linecap="square"/>
  <path d="M3.83169 2.99653L3.72169 1.89653C4.89502 1.57412 6.10502 1.57412 7.27835 1.89653L7.16835 2.99653C7.13169 3.26205 7.29669 3.5086 7.53502 3.60343L9.29502 4.30515C9.55169 4.39998 9.84502 4.30515 9.99169 4.0586L10.7617 2.71205C10.9084 2.44653 10.8534 2.12412 10.615 1.93446C7.57169 -0.398297 3.42835 -0.398297 0.403352 1.95343C0.165019 2.14308 0.110019 2.4655 0.256685 2.73101L1.02669 4.07756C1.17335 4.32412 1.46669 4.43791 1.72335 4.32412L3.48335 3.62239C3.72169 3.52756 3.86835 3.26205 3.83169 2.99653Z" stroke="white" stroke-miterlimit="10" stroke-linecap="square"/>
</svg>

