<svg width="590" height="170" viewBox="0 0 590 170" fill="none" xmlns="http://www.w3.org/2000/svg">
<g style="mix-blend-mode:plus-lighter" opacity="0.4">
<path d="M-41.0176 88.6231L332.6 16.31C343.502 14.2 349.795 2.69354 345.691 -7.62429L293.269 -139.4" stroke="url(#paint0_linear_2623_1073)" stroke-width="2"/>
<path d="M-17.2188 102.459L356.399 30.1464C367.301 28.0364 373.594 16.53 369.489 6.21214L317.068 -125.564" stroke="url(#paint1_linear_2623_1073)" stroke-width="2"/>
<path d="M13.7734 117.956L387.391 45.643C398.293 43.533 404.586 32.0265 400.482 21.7087L348.06 -110.067" stroke="url(#paint2_linear_2623_1073)" stroke-width="2"/>
<path d="M44.7676 133.453L418.385 61.1399C429.287 59.0298 435.58 47.5234 431.476 37.2055L379.054 -94.5703" stroke="url(#paint3_linear_2623_1073)" stroke-width="2"/>
<path d="M75.7617 148.95L449.379 76.6366C460.281 74.5265 466.574 63.0201 462.47 52.7023L410.048 -79.0736" stroke="url(#paint4_linear_2623_1073)" stroke-width="2"/>
<path d="M106.754 164.446L480.371 92.1333C491.273 90.0232 497.567 78.5168 493.462 68.199L441.04 -63.5769" stroke="url(#paint5_linear_2623_1073)" stroke-width="2"/>
<path d="M137.748 179.943L511.366 107.63C522.268 105.52 528.561 94.0135 524.457 83.6957L472.035 -48.0802" stroke="url(#paint6_linear_2623_1073)" stroke-width="2"/>
<path d="M164.314 195.44L537.932 123.127C548.834 121.017 555.127 109.51 551.023 99.1924L498.601 -32.5835" stroke="url(#paint7_linear_2623_1073)" stroke-width="2"/>
<path d="M195.307 210.937L568.924 138.623C579.826 136.513 586.119 125.007 582.015 114.689L529.593 -17.0867" stroke="url(#paint8_linear_2623_1073)" stroke-width="2"/>
</g>
<defs>
<linearGradient id="paint0_linear_2623_1073" x1="156.289" y1="-139.4" x2="156.289" y2="88.6231" gradientUnits="userSpaceOnUse">
<stop stop-color="white"/>
<stop offset="0.794435" stop-color="white" stop-opacity="0"/>
</linearGradient>
<linearGradient id="paint1_linear_2623_1073" x1="180.088" y1="-125.564" x2="180.088" y2="102.459" gradientUnits="userSpaceOnUse">
<stop stop-color="white"/>
<stop offset="0.794435" stop-color="white" stop-opacity="0"/>
</linearGradient>
<linearGradient id="paint2_linear_2623_1073" x1="211.08" y1="-110.067" x2="211.08" y2="117.956" gradientUnits="userSpaceOnUse">
<stop stop-color="white"/>
<stop offset="0.794435" stop-color="white" stop-opacity="0"/>
</linearGradient>
<linearGradient id="paint3_linear_2623_1073" x1="242.074" y1="-94.5703" x2="242.074" y2="133.453" gradientUnits="userSpaceOnUse">
<stop stop-color="white"/>
<stop offset="0.794435" stop-color="white" stop-opacity="0"/>
</linearGradient>
<linearGradient id="paint4_linear_2623_1073" x1="273.068" y1="-79.0736" x2="273.068" y2="148.95" gradientUnits="userSpaceOnUse">
<stop stop-color="white"/>
<stop offset="0.794435" stop-color="white" stop-opacity="0"/>
</linearGradient>
<linearGradient id="paint5_linear_2623_1073" x1="304.06" y1="-63.5769" x2="304.06" y2="164.446" gradientUnits="userSpaceOnUse">
<stop stop-color="white"/>
<stop offset="0.794435" stop-color="white" stop-opacity="0"/>
</linearGradient>
<linearGradient id="paint6_linear_2623_1073" x1="335.055" y1="-48.0802" x2="335.055" y2="179.943" gradientUnits="userSpaceOnUse">
<stop stop-color="white"/>
<stop offset="0.794435" stop-color="white" stop-opacity="0"/>
</linearGradient>
<linearGradient id="paint7_linear_2623_1073" x1="361.621" y1="-32.5835" x2="361.621" y2="195.44" gradientUnits="userSpaceOnUse">
<stop stop-color="white"/>
<stop offset="0.794435" stop-color="white" stop-opacity="0"/>
</linearGradient>
<linearGradient id="paint8_linear_2623_1073" x1="392.613" y1="-17.0867" x2="392.613" y2="210.937" gradientUnits="userSpaceOnUse">
<stop stop-color="white"/>
<stop offset="0.794435" stop-color="white" stop-opacity="0"/>
</linearGradient>
</defs>
</svg>
